<?xml version="1.0" encoding="utf-8"?>
<!-- Generator: Adobe Illustrator 15.0.0, SVG Export Plug-In . SVG Version: 6.00 Build 0)  -->
<!DOCTYPE svg PUBLIC "-//W3C//DTD SVG 1.1//EN" "http://www.w3.org/Graphics/SVG/1.1/DTD/svg11.dtd">
<svg version="1.1" id="Layer_1" xmlns="http://www.w3.org/2000/svg" xmlns:xlink="http://www.w3.org/1999/xlink" x="0px" y="0px"
	 width="168px" height="94px" viewBox="0 0 168 94" enable-background="new 0 0 168 94" xml:space="preserve">
<polygon fill="#009652" points="-424,0 -159,0 -159,22 -402,22 -402,44 -424,44 "/>
<polygon fill="#009652" points="-380,44 -380,94 -255,94 -255,64 -181,64 -181,94 -159,94 -159,44 -277,44 -277,72 -358,72 -358,44 
	"/>
<path d="M158,47c0,0-33.131,37-74,37S10,47,10,47s33.131-37,74-37S158,47,158,47z"/>
<circle fill="#FFFFFF" cx="84" cy="47" r="23"/>
</svg>
