<?xml version="1.0" encoding="utf-8"?>
<!-- Generator: Adobe Illustrator 15.0.0, SVG Export Plug-In . SVG Version: 6.00 Build 0)  -->
<!DOCTYPE svg PUBLIC "-//W3C//DTD SVG 1.1//EN" "http://www.w3.org/Graphics/SVG/1.1/DTD/svg11.dtd">
<svg version="1.1" id="Layer_1" xmlns="http://www.w3.org/2000/svg" xmlns:xlink="http://www.w3.org/1999/xlink" x="0px" y="0px"
	 width="168px" height="94px" viewBox="0 0 168 94" enable-background="new 0 0 168 94" xml:space="preserve">
<polygon fill="#009652" points="-424,0 -159,0 -159,22 -402,22 -402,44 -424,44 "/>
<polygon fill="#009652" points="-380,44 -380,94 -255,94 -255,64 -181,64 -181,94 -159,94 -159,44 -277,44 -277,72 -358,72 -358,44 
	"/>
<path d="M158,47c0,0-33.131,37-74,37S10,47,10,47s33.131-37,74-37S158,47,158,47z"/>
<circle fill="#FFFFFF" cx="84" cy="47" r="23"/>
<g>
	<path d="M13.36,38.393l-1.868-1.011l-2.954,2.768l0.877,1.941l-1.692,1.586L2.956,32.532l1.272-1.193l10.824,5.467L13.36,38.393z
		 M5.931,34.349l1.783,4.008l2.065-1.937L5.931,34.349z"/>
	<path d="M9.54,28.75l-1.108-1.285l1.611-1.39l1.108,1.284L9.54,28.75z M17.712,38.712l-0.896,0.773l-1.15-1.333l0.606-0.522
		c0.399-0.345,0.39-0.675,0.065-1.05l-5.686-6.591l1.575-1.359l5.77,6.688C18.77,36.214,19.008,37.593,17.712,38.712z"/>
	<path d="M21.839,31.33c-1.353,1.075-2.608,1.602-4.192,1.409l0.232-2.023c1.012,0.116,1.925-0.303,2.739-0.949
		c1.039-0.826,1.272-1.665,0.705-2.378c-0.238-0.301-0.525-0.482-0.862-0.521c-0.305-0.023-0.54,0.041-1.041,0.336l-1.193,0.683
		c-0.879,0.514-1.606,0.704-2.316,0.634c-0.754-0.075-1.435-0.495-2.031-1.247c-1.264-1.591-0.972-3.641,0.958-5.173
		c1.228-0.975,2.355-1.38,3.707-1.249l-0.237,1.965c-0.979-0.101-1.728,0.371-2.316,0.839c-0.927,0.736-0.958,1.598-0.47,2.212
		c0.188,0.238,0.431,0.414,0.758,0.44c0.305,0.023,0.667-0.06,1.083-0.309l1.193-0.683c0.904-0.534,1.574-0.719,2.262-0.651
		c0.824,0.06,1.544,0.53,2.181,1.332C24.37,27.726,23.718,29.837,21.839,31.33z"/>
	<path d="M20.794,19.708l-0.998-1.372l1.721-1.252l0.998,1.372L20.794,19.708z M26.562,27.583l-4.764-6.547l1.683-1.224l4.764,6.547
		L26.562,27.583z"/>
	<path d="M24.548,17.028l-0.957-1.399l1.755-1.201l0.958,1.399L24.548,17.028z M31.556,27.834l-0.977,0.668l-0.994-1.452l0.66-0.452
		c0.436-0.298,0.463-0.626,0.183-1.036l-4.914-7.18l1.716-1.174l4.986,7.286C32.885,25.471,32.968,26.867,31.556,27.834z"/>
	<path d="M38.029,18.829c-0.164,0.74-0.619,1.585-1.667,2.233s-1.995,0.668-2.729,0.482c-1.061-0.285-1.72-0.987-2.51-2.267
		c-0.791-1.279-1.115-2.169-0.896-3.245c0.163-0.74,0.605-1.578,1.653-2.225c1.048-0.647,2-0.69,2.743-0.491
		c1.06,0.286,1.711,0.974,2.501,2.253S38.271,17.758,38.029,18.829z M33.888,15.2c-0.33-0.078-0.669-0.019-1.023,0.2
		c-0.34,0.21-0.545,0.487-0.623,0.817c-0.148,0.581,0.205,1.246,0.651,1.967c0.454,0.735,0.89,1.35,1.476,1.477
		c0.33,0.078,0.67,0.019,1.01-0.191c0.354-0.219,0.56-0.496,0.638-0.826c0.148-0.581-0.206-1.246-0.66-1.981
		C34.91,15.941,34.475,15.327,33.888,15.2z"/>
</g>
</svg>
